<mxfile host="app.diagrams.net" agent="Mozilla/5.0 (Windows NT 10.0; Win64; x64) AppleWebKit/537.36 (KHTML, like Gecko) Chrome/134.0.0.0 Safari/537.36" version="26.1.3">
  <diagram name="Page-1" id="A1h274NfpyJpK2u8J-Z3">
    <mxGraphModel dx="600" dy="322" grid="1" gridSize="10" guides="1" tooltips="1" connect="1" arrows="1" fold="1" page="1" pageScale="1" pageWidth="850" pageHeight="1100" math="0" shadow="0">
      <root>
        <mxCell id="0" />
        <mxCell id="1" parent="0" />
        <mxCell id="Zhf82cfjON44N4Ljrlxe-3" value="User&amp;nbsp;" style="whiteSpace=wrap;html=1;aspect=fixed;" vertex="1" parent="1">
          <mxGeometry x="70" y="330" width="60" height="60" as="geometry" />
        </mxCell>
        <mxCell id="Zhf82cfjON44N4Ljrlxe-4" value="Ticket Raising system" style="whiteSpace=wrap;html=1;aspect=fixed;" vertex="1" parent="1">
          <mxGeometry x="200" y="330" width="60" height="60" as="geometry" />
        </mxCell>
        <mxCell id="Zhf82cfjON44N4Ljrlxe-5" value="Technician" style="whiteSpace=wrap;html=1;aspect=fixed;" vertex="1" parent="1">
          <mxGeometry x="330" y="330" width="60" height="60" as="geometry" />
        </mxCell>
        <mxCell id="Zhf82cfjON44N4Ljrlxe-7" value="" style="endArrow=classic;startArrow=classic;html=1;rounded=0;entryX=0;entryY=0.5;entryDx=0;entryDy=0;" edge="1" parent="1" target="Zhf82cfjON44N4Ljrlxe-4">
          <mxGeometry width="50" height="50" relative="1" as="geometry">
            <mxPoint x="130" y="360" as="sourcePoint" />
            <mxPoint x="180" y="310" as="targetPoint" />
          </mxGeometry>
        </mxCell>
        <mxCell id="Zhf82cfjON44N4Ljrlxe-8" value="" style="endArrow=classic;startArrow=classic;html=1;rounded=0;entryX=0;entryY=0.5;entryDx=0;entryDy=0;" edge="1" parent="1">
          <mxGeometry width="50" height="50" relative="1" as="geometry">
            <mxPoint x="260" y="359.71" as="sourcePoint" />
            <mxPoint x="330" y="359.71" as="targetPoint" />
          </mxGeometry>
        </mxCell>
        <mxCell id="Zhf82cfjON44N4Ljrlxe-9" value="&lt;font style=&quot;font-size: 8px;&quot;&gt;(Create,&lt;br&gt;View Ticket)&amp;nbsp;&lt;/font&gt;" style="text;html=1;align=center;verticalAlign=middle;resizable=0;points=[];autosize=1;strokeColor=none;fillColor=none;" vertex="1" parent="1">
          <mxGeometry x="125" y="323" width="70" height="40" as="geometry" />
        </mxCell>
        <mxCell id="Zhf82cfjON44N4Ljrlxe-10" value="&lt;font style=&quot;font-size: 11px;&quot;&gt;PostgreSQL DB&lt;/font&gt;" style="whiteSpace=wrap;html=1;aspect=fixed;" vertex="1" parent="1">
          <mxGeometry x="200" y="460" width="60" height="60" as="geometry" />
        </mxCell>
        <mxCell id="Zhf82cfjON44N4Ljrlxe-11" value="" style="endArrow=classic;startArrow=classic;html=1;rounded=0;exitX=0.5;exitY=0;exitDx=0;exitDy=0;" edge="1" parent="1" source="Zhf82cfjON44N4Ljrlxe-10">
          <mxGeometry width="50" height="50" relative="1" as="geometry">
            <mxPoint x="180" y="440" as="sourcePoint" />
            <mxPoint x="230" y="390" as="targetPoint" />
          </mxGeometry>
        </mxCell>
        <mxCell id="Zhf82cfjON44N4Ljrlxe-12" value="&lt;font style=&quot;font-size: 8px;&quot;&gt;(Stores Data)&lt;/font&gt;" style="text;html=1;align=center;verticalAlign=middle;resizable=0;points=[];autosize=1;strokeColor=none;fillColor=none;" vertex="1" parent="1">
          <mxGeometry x="220" y="410" width="70" height="30" as="geometry" />
        </mxCell>
        <mxCell id="Zhf82cfjON44N4Ljrlxe-13" value="&lt;font style=&quot;font-size: 8px;&quot;&gt;(Handles&lt;br&gt;Ticket)&lt;/font&gt;" style="text;html=1;align=center;verticalAlign=middle;resizable=0;points=[];autosize=1;strokeColor=none;fillColor=none;" vertex="1" parent="1">
          <mxGeometry x="260" y="323" width="60" height="40" as="geometry" />
        </mxCell>
      </root>
    </mxGraphModel>
  </diagram>
</mxfile>
